<svg xmlns="http://www.w3.org/2000/svg" xmlns:xlink="http://www.w3.org/1999/xlink" width="500" zoomAndPan="magnify" viewBox="0 0 375 374.999991" height="500" preserveAspectRatio="xMidYMid meet" version="1.0"><defs><g/><clipPath id="356501ac4d"><path d="M 3 84.285156 L 273 84.285156 L 273 260.535156 L 3 260.535156 Z M 3 84.285156 " clip-rule="nonzero"/></clipPath><clipPath id="e8531793af"><path d="M 318 80 L 373 80 L 373 134 L 318 134 Z M 318 80 " clip-rule="nonzero"/></clipPath><clipPath id="64b7d49bb7"><path d="M 337.027344 71.558594 L 380.085938 98.894531 L 352.75 141.949219 L 309.691406 114.617188 Z M 337.027344 71.558594 " clip-rule="nonzero"/></clipPath><clipPath id="851d117fa4"><path d="M 337.027344 71.558594 L 380.085938 98.894531 L 352.75 141.949219 L 309.691406 114.617188 Z M 337.027344 71.558594 " clip-rule="nonzero"/></clipPath><clipPath id="c34932d752"><path d="M 340 100 L 352 100 L 352 112 L 340 112 Z M 340 100 " clip-rule="nonzero"/></clipPath><clipPath id="c73afe0fbb"><path d="M 337.027344 71.558594 L 380.085938 98.894531 L 352.75 141.949219 L 309.691406 114.617188 Z M 337.027344 71.558594 " clip-rule="nonzero"/></clipPath><clipPath id="a99f00335e"><path d="M 337.027344 71.558594 L 380.085938 98.894531 L 352.75 141.949219 L 309.691406 114.617188 Z M 337.027344 71.558594 " clip-rule="nonzero"/></clipPath></defs><g clip-path="url(#356501ac4d)"><path fill="#0500ff" d="M 248.746094 87.890625 C 254.84375 87.890625 260.949219 87.941406 267.046875 87.890625 C 267.132812 87.886719 267.21875 87.890625 267.300781 87.890625 C 268.441406 87.890625 272.84375 87.796875 272.929688 86.035156 C 273.007812 84.339844 267.996094 84.34375 267.253906 84.34375 C 262.226562 84.34375 257.199219 84.34375 252.175781 84.34375 C 240.109375 84.34375 228.046875 84.34375 215.980469 84.34375 C 201.445312 84.34375 186.902344 84.34375 172.363281 84.34375 C 159.800781 84.34375 147.238281 84.34375 134.679688 84.34375 C 128.578125 84.34375 122.476562 84.289062 116.375 84.34375 C 116.289062 84.34375 116.207031 84.34375 116.121094 84.34375 C 114.734375 84.34375 110.960938 84.410156 110.492188 86.195312 C 110.089844 87.738281 109.683594 89.28125 109.277344 90.820312 C 108.183594 94.992188 107.085938 99.160156 105.992188 103.328125 C 104.367188 109.523438 102.738281 115.71875 101.109375 121.914062 C 99.125 129.476562 97.140625 137.039062 95.152344 144.601562 C 92.988281 152.84375 90.824219 161.082031 88.65625 169.328125 C 86.460938 177.6875 84.265625 186.050781 82.066406 194.410156 C 80.019531 202.207031 77.972656 210.003906 75.925781 217.796875 C 74.199219 224.355469 72.476562 230.914062 70.757812 237.46875 C 70.511719 238.398438 70.269531 239.328125 70.023438 240.257812 C 68.304688 235.375 66.582031 230.492188 64.859375 225.605469 C 61.535156 216.179688 58.207031 206.75 54.886719 197.328125 C 52.023438 189.210938 49.164062 181.097656 46.300781 172.980469 C 44.910156 169.039062 43.617188 165.050781 42.125 161.140625 C 42.105469 161.085938 42.085938 161.03125 42.066406 160.972656 C 41.4375 159.183594 37.792969 159.28125 36.390625 159.28125 C 28.308594 159.28125 20.226562 159.28125 12.144531 159.28125 C 10.996094 159.28125 9.84375 159.28125 8.699219 159.28125 C 7.5625 159.28125 3.15625 159.375 3.070312 161.136719 C 2.992188 162.832031 8.003906 162.824219 8.746094 162.824219 C 16.285156 162.824219 23.824219 162.824219 31.363281 162.824219 C 32.300781 165.492188 33.242188 168.15625 34.179688 170.820312 C 36.917969 178.574219 39.652344 186.328125 42.386719 194.085938 C 45.707031 203.511719 49.03125 212.9375 52.359375 222.363281 C 55.21875 230.480469 58.078125 238.597656 60.941406 246.707031 C 62.332031 250.652344 63.628906 254.640625 65.117188 258.550781 C 65.136719 258.601562 65.15625 258.660156 65.175781 258.714844 C 65.804688 260.5 69.335938 260.449219 70.851562 260.410156 C 72.269531 260.367188 75.992188 260.398438 76.476562 258.554688 C 76.882812 257.015625 77.289062 255.472656 77.691406 253.929688 C 78.785156 249.761719 79.882812 245.589844 80.976562 241.421875 C 82.605469 235.230469 84.230469 229.035156 85.859375 222.839844 C 87.847656 215.277344 89.832031 207.714844 91.820312 200.152344 C 93.984375 191.910156 96.148438 183.667969 98.3125 175.425781 C 100.507812 167.066406 102.707031 158.703125 104.902344 150.34375 C 106.949219 142.546875 108.996094 134.75 111.046875 126.953125 C 112.769531 120.394531 114.492188 113.839844 116.214844 107.28125 C 117.460938 102.539062 118.707031 97.796875 119.949219 93.054688 C 120.402344 91.339844 120.917969 89.617188 121.351562 87.890625 C 124.652344 87.890625 127.949219 87.890625 131.246094 87.890625 C 143.3125 87.890625 155.375 87.890625 167.441406 87.890625 C 181.980469 87.890625 196.519531 87.890625 211.0625 87.890625 C 223.621094 87.890625 236.179688 87.890625 248.746094 87.890625 " fill-opacity="1" fill-rule="nonzero"/></g><g clip-path="url(#e8531793af)"><g clip-path="url(#64b7d49bb7)"><g clip-path="url(#851d117fa4)"><path fill="#0500ff" d="M 366.417969 120.421875 C 368.003906 117.925781 367.695312 114.503906 365.902344 110.820312 C 369.023438 108.257812 370.925781 105.445312 371.113281 102.726562 C 371.585938 102.554688 372.003906 102.234375 372.292969 101.78125 C 372.992188 100.679688 372.664062 99.214844 371.5625 98.515625 C 370.972656 98.140625 370.28125 98.0625 369.65625 98.238281 C 368.140625 96.371094 365.515625 94.992188 362.175781 94.148438 C 362.230469 90.046875 361.058594 86.816406 358.554688 85.226562 C 356.0625 83.644531 352.644531 83.949219 348.964844 85.738281 C 345.703125 81.753906 342.207031 79.949219 339.058594 80.652344 C 337.792969 80.9375 336.644531 81.617188 335.632812 82.671875 C 334.53125 81.976562 333.074219 82.304688 332.375 83.402344 C 331.675781 84.503906 332.003906 85.96875 333.105469 86.667969 C 333.121094 86.679688 333.140625 86.6875 333.15625 86.699219 C 332.808594 87.558594 332.507812 88.484375 332.257812 89.46875 C 328.167969 89.417969 324.945312 90.589844 323.359375 93.085938 C 321.777344 95.582031 322.082031 98.996094 323.871094 102.675781 C 319.886719 105.941406 318.082031 109.4375 318.785156 112.585938 C 319.199219 114.433594 320.449219 116.027344 322.421875 117.28125 C 323.804688 118.15625 325.546875 118.871094 327.605469 119.390625 C 327.550781 123.480469 328.726562 126.699219 331.222656 128.28125 C 333.671875 129.839844 337.035156 129.652344 340.832031 127.800781 C 342.167969 129.429688 343.546875 130.691406 344.921875 131.5625 C 346.894531 132.816406 348.867188 133.269531 350.71875 132.855469 C 353.863281 132.152344 356.261719 129.035156 357.519531 124.039062 C 361.613281 124.09375 364.832031 122.917969 366.417969 120.421875 Z M 371.128906 99.199219 C 371.855469 99.660156 372.070312 100.621094 371.609375 101.347656 C 371.148438 102.070312 370.1875 102.285156 369.460938 101.824219 C 368.738281 101.367188 368.523438 100.402344 368.984375 99.679688 C 369.441406 98.953125 370.40625 98.738281 371.128906 99.199219 Z M 368.90625 98.601562 C 368.671875 98.769531 368.464844 98.984375 368.300781 99.246094 C 367.601562 100.347656 367.925781 101.808594 369.027344 102.507812 C 369.421875 102.757812 369.859375 102.875 370.292969 102.875 C 370.046875 105.296875 368.328125 107.804688 365.539062 110.117188 C 364.34375 107.871094 362.613281 105.546875 360.4375 103.28125 C 361.441406 100.316406 362.015625 97.484375 362.148438 94.949219 C 365.140625 95.722656 367.496094 96.957031 368.90625 98.601562 Z M 342.664062 124.308594 C 343.125 123.582031 344.085938 123.367188 344.8125 123.828125 C 345.535156 124.285156 345.75 125.25 345.292969 125.976562 C 344.832031 126.699219 343.867188 126.914062 343.144531 126.453125 C 342.421875 125.996094 342.203125 125.03125 342.664062 124.308594 Z M 345.246094 123.144531 C 344.144531 122.445312 342.679688 122.769531 341.980469 123.871094 C 341.5 124.632812 341.503906 125.5625 341.914062 126.296875 C 341.625 126.46875 341.339844 126.628906 341.054688 126.777344 C 340.996094 126.703125 340.9375 126.636719 340.882812 126.558594 C 339.515625 124.769531 338.261719 122.664062 337.152344 120.332031 C 338.929688 120.289062 340.765625 120.144531 342.636719 119.898438 C 344.28125 120.722656 345.914062 121.421875 347.515625 122.003906 C 346.933594 122.554688 346.34375 123.078125 345.75 123.574219 C 345.605469 123.410156 345.4375 123.265625 345.246094 123.144531 Z M 328.378906 118.738281 C 328.492188 116.359375 329.027344 113.679688 329.960938 110.855469 C 331.171875 112.0625 332.503906 113.246094 333.953125 114.386719 C 334.523438 116.183594 335.175781 117.90625 335.894531 119.53125 C 333.308594 119.519531 330.871094 119.28125 328.667969 118.808594 C 328.570312 118.785156 328.476562 118.761719 328.378906 118.738281 Z M 348.894531 86.949219 C 350.265625 88.742188 351.523438 90.855469 352.636719 93.199219 C 350.867188 93.234375 349.03125 93.375 347.152344 93.617188 C 345.5 92.789062 343.859375 92.085938 342.25 91.503906 C 344.40625 89.457031 346.601562 87.832031 348.710938 86.714844 C 348.773438 86.792969 348.835938 86.867188 348.894531 86.949219 Z M 354.808594 113.054688 C 353.933594 114.433594 352.996094 115.75 352.027344 117 C 350.554688 117.460938 349.023438 117.871094 347.449219 118.222656 C 345.878906 118.574219 344.3125 118.851562 342.773438 119.0625 C 341.378906 118.351562 339.980469 117.558594 338.589844 116.675781 C 337.199219 115.792969 335.886719 114.867188 334.652344 113.90625 C 334.183594 112.421875 333.769531 110.890625 333.421875 109.316406 C 333.070312 107.742188 332.789062 106.179688 332.582031 104.636719 C 333.289062 103.246094 334.085938 101.847656 334.96875 100.457031 C 335.851562 99.066406 336.777344 97.753906 337.738281 96.515625 C 339.222656 96.050781 340.753906 95.636719 342.328125 95.285156 C 343.90625 94.933594 345.46875 94.65625 347.007812 94.449219 C 348.402344 95.160156 349.796875 95.953125 351.1875 96.835938 C 352.574219 97.714844 353.890625 98.644531 355.125 99.601562 C 355.59375 101.085938 356.003906 102.621094 356.355469 104.195312 C 356.707031 105.765625 356.984375 107.328125 357.195312 108.871094 C 356.488281 110.265625 355.691406 111.664062 354.808594 113.054688 Z M 357.148438 104.015625 C 356.878906 102.820312 356.574219 101.644531 356.242188 100.492188 C 357.425781 101.46875 358.523438 102.46875 359.53125 103.484375 C 359.050781 104.832031 358.480469 106.207031 357.824219 107.59375 C 357.640625 106.410156 357.414062 105.214844 357.148438 104.015625 Z M 355.824219 99.125 C 355.253906 97.328125 354.601562 95.609375 353.886719 93.984375 C 356.625 93.996094 359.167969 94.261719 361.398438 94.765625 C 361.285156 97.148438 360.75 99.828125 359.816406 102.652344 C 358.605469 101.449219 357.273438 100.265625 355.824219 99.125 Z M 354.6875 98.257812 C 353.707031 97.53125 352.6875 96.828125 351.621094 96.152344 C 350.558594 95.476562 349.488281 94.851562 348.417969 94.277344 C 349.988281 94.109375 351.519531 94.011719 353 93.988281 C 353.613281 95.34375 354.175781 96.769531 354.6875 98.257812 Z M 345.730469 93.820312 C 344.546875 94.003906 343.351562 94.226562 342.152344 94.496094 C 340.953125 94.765625 339.777344 95.066406 338.625 95.402344 C 339.601562 94.21875 340.605469 93.121094 341.617188 92.113281 C 342.964844 92.59375 344.34375 93.160156 345.730469 93.820312 Z M 337.257812 95.816406 C 335.460938 96.390625 333.738281 97.042969 332.109375 97.761719 C 332.121094 95.039062 332.382812 92.496094 332.898438 90.246094 C 335.28125 90.355469 337.964844 90.894531 340.785156 91.828125 C 339.582031 93.039062 338.398438 94.371094 337.257812 95.816406 Z M 336.390625 96.957031 C 335.667969 97.933594 334.960938 98.957031 334.285156 100.023438 C 333.609375 101.085938 332.984375 102.160156 332.410156 103.230469 C 332.238281 101.664062 332.140625 100.132812 332.117188 98.644531 C 333.472656 98.03125 334.902344 97.46875 336.390625 96.957031 Z M 331.746094 104.503906 C 330.917969 106.152344 330.21875 107.789062 329.636719 109.394531 C 327.589844 107.238281 325.964844 105.039062 324.851562 102.933594 C 324.929688 102.871094 325.003906 102.808594 325.082031 102.75 C 326.875 101.382812 328.980469 100.125 331.316406 99.015625 C 331.359375 100.792969 331.496094 102.628906 331.746094 104.503906 Z M 331.953125 105.914062 C 332.136719 107.097656 332.363281 108.292969 332.628906 109.492188 C 332.898438 110.691406 333.203125 111.867188 333.535156 113.015625 C 332.351562 112.042969 331.253906 111.039062 330.246094 110.023438 C 330.726562 108.675781 331.292969 107.300781 331.953125 105.914062 Z M 335.089844 115.253906 C 336.070312 115.976562 337.089844 116.683594 338.15625 117.359375 C 339.222656 118.035156 340.296875 118.660156 341.367188 119.238281 C 339.804688 119.410156 338.269531 119.503906 336.78125 119.527344 C 336.167969 118.167969 335.601562 116.742188 335.089844 115.253906 Z M 344.050781 119.691406 C 345.234375 119.503906 346.429688 119.28125 347.625 119.011719 C 348.824219 118.746094 349.996094 118.441406 351.136719 118.109375 C 350.171875 119.28125 349.175781 120.378906 348.148438 121.394531 C 346.804688 120.914062 345.433594 120.347656 344.050781 119.691406 Z M 352.515625 117.691406 C 354.328125 117.113281 356.050781 116.457031 357.667969 115.738281 C 357.65625 118.328125 357.417969 120.769531 356.941406 122.972656 C 356.921875 123.074219 356.894531 123.167969 356.875 123.265625 C 354.492188 123.152344 351.816406 122.617188 349 121.683594 C 350.214844 120.457031 351.390625 119.121094 352.515625 117.691406 Z M 353.386719 116.554688 C 354.117188 115.566406 354.820312 114.546875 355.492188 113.488281 C 356.167969 112.421875 356.792969 111.347656 357.371094 110.277344 C 357.542969 111.84375 357.640625 113.378906 357.660156 114.871094 C 356.3125 115.476562 354.882812 116.042969 353.386719 116.554688 Z M 358.03125 109.007812 C 358.859375 107.359375 359.558594 105.722656 360.140625 104.117188 C 362.195312 106.28125 363.824219 108.484375 364.941406 110.601562 C 363.140625 112.003906 360.953125 113.324219 358.464844 114.503906 C 358.421875 112.722656 358.28125 110.882812 358.03125 109.007812 Z M 358.121094 85.910156 C 360.375 87.339844 361.445312 90.246094 361.417969 93.96875 C 359.066406 93.449219 356.398438 93.183594 353.527344 93.1875 C 352.351562 90.65625 351.007812 88.382812 349.539062 86.457031 C 349.511719 86.417969 349.480469 86.382812 349.449219 86.34375 C 352.800781 84.746094 355.875 84.484375 358.121094 85.910156 Z M 333.058594 83.835938 C 333.519531 83.113281 334.480469 82.898438 335.207031 83.359375 C 335.929688 83.816406 336.144531 84.78125 335.683594 85.503906 C 335.226562 86.230469 334.261719 86.445312 333.539062 85.984375 C 332.8125 85.523438 332.597656 84.5625 333.058594 83.835938 Z M 333.910156 86.988281 C 334.839844 87.171875 335.832031 86.785156 336.367188 85.9375 C 336.917969 85.070312 336.832031 83.980469 336.230469 83.214844 C 337.125 82.285156 338.136719 81.6875 339.234375 81.441406 C 342.035156 80.816406 345.203125 82.472656 348.230469 86.113281 C 345.992188 87.3125 343.671875 89.035156 341.417969 91.207031 C 338.453125 90.203125 335.621094 89.628906 333.085938 89.496094 C 333.320312 88.609375 333.59375 87.769531 333.910156 86.988281 Z M 324.042969 93.519531 C 325.46875 91.273438 328.367188 90.203125 332.078125 90.226562 C 331.550781 92.597656 331.289062 95.265625 331.300781 98.125 C 328.777344 99.300781 326.511719 100.640625 324.59375 102.105469 C 324.554688 102.132812 324.515625 102.164062 324.480469 102.195312 C 322.882812 98.84375 322.617188 95.769531 324.042969 93.519531 Z M 319.578125 112.40625 C 318.953125 109.609375 320.605469 106.441406 324.25 103.414062 C 325.445312 105.652344 327.167969 107.96875 329.339844 110.226562 C 328.335938 113.195312 327.761719 116.023438 327.628906 118.558594 C 323.046875 117.371094 320.203125 115.207031 319.578125 112.40625 Z M 331.65625 127.597656 C 329.410156 126.171875 328.335938 123.277344 328.359375 119.566406 C 328.40625 119.578125 328.449219 119.589844 328.5 119.597656 C 330.859375 120.109375 333.480469 120.355469 336.261719 120.34375 C 337.433594 122.867188 338.773438 125.132812 340.238281 127.050781 C 340.265625 127.085938 340.289062 127.117188 340.316406 127.148438 C 336.851562 128.804688 333.824219 128.976562 331.65625 127.597656 Z M 350.542969 132.066406 C 347.75 132.691406 344.589844 131.042969 341.570312 127.421875 C 341.855469 127.265625 342.144531 127.105469 342.4375 126.929688 C 342.523438 127.003906 342.613281 127.074219 342.710938 127.136719 C 343.8125 127.835938 345.277344 127.511719 345.976562 126.410156 C 346.394531 125.746094 346.441406 124.953125 346.175781 124.273438 C 346.917969 123.660156 347.652344 123.007812 348.375 122.308594 C 351.335938 123.308594 354.164062 123.882812 356.695312 124.015625 C 355.503906 128.59375 353.339844 131.441406 350.542969 132.066406 Z M 357.699219 123.285156 C 357.710938 123.238281 357.722656 123.191406 357.734375 123.144531 C 358.242188 120.78125 358.492188 118.152344 358.480469 115.367188 C 361.085938 114.152344 363.390625 112.773438 365.292969 111.304688 C 366.894531 114.660156 367.160156 117.738281 365.734375 119.988281 C 364.308594 122.234375 361.410156 123.304688 357.699219 123.285156 Z M 357.699219 123.285156 " fill-opacity="1" fill-rule="nonzero"/></g></g></g><g clip-path="url(#c34932d752)"><g clip-path="url(#c73afe0fbb)"><g clip-path="url(#a99f00335e)"><path fill="#0500ff" d="M 348.46875 101.117188 C 345.90625 99.492188 342.5 100.25 340.875 102.8125 C 339.246094 105.375 340.007812 108.78125 342.570312 110.40625 C 345.132812 112.035156 348.539062 111.273438 350.164062 108.710938 C 351.789062 106.148438 351.03125 102.742188 348.46875 101.117188 Z M 343.003906 109.722656 C 340.820312 108.335938 340.171875 105.429688 341.558594 103.246094 C 342.945312 101.0625 345.851562 100.414062 348.035156 101.800781 C 350.21875 103.1875 350.867188 106.09375 349.480469 108.277344 C 348.09375 110.460938 345.1875 111.109375 343.003906 109.722656 Z M 343.003906 109.722656 " fill-opacity="1" fill-rule="nonzero"/></g></g></g><g fill="#ffffff" fill-opacity="1"><g transform="translate(108.045128, 217.783048)"><g><path d="M 62.394531 2.535156 C 102.144531 2.535156 116.554688 -9.976562 119.246094 -44.183594 L 86.308594 -44.183594 C 85.199219 -29.929688 79.816406 -23.277344 62.238281 -23.277344 C 45.132812 -23.277344 38.640625 -33.097656 38.640625 -52.417969 C 38.640625 -72.214844 45.925781 -82.03125 63.1875 -82.03125 C 80.289062 -82.03125 85.039062 -74.589844 85.992188 -61.601562 L 118.613281 -61.601562 C 116.394531 -93.117188 101.351562 -107.84375 62.394531 -107.84375 C 20.429688 -107.84375 5.542969 -79.816406 5.542969 -52.417969 C 5.542969 -24.386719 20.429688 2.535156 62.394531 2.535156 Z M 62.394531 2.535156 "/></g></g></g><g fill="#ffffff" fill-opacity="1"><g transform="translate(232.003694, 219.988937)"><g><path d="M 92.640625 -99.296875 L 92.640625 0 L 79.015625 0 L 24.078125 -77.28125 L 24.078125 0 L 11.40625 0 L 11.40625 -99.296875 L 25.015625 -99.296875 L 79.96875 -20.90625 L 79.96875 -99.296875 Z M 92.640625 -99.296875 "/></g></g></g></svg>