<svg xmlns="http://www.w3.org/2000/svg" xmlns:xlink="http://www.w3.org/1999/xlink" width="1080" zoomAndPan="magnify" viewBox="0 0 810 179.999997" height="240" preserveAspectRatio="xMidYMid meet" version="1.0"><defs><g/><clipPath id="3a891f7f2d"><path d="M 48.511719 20.117188 L 279.511719 20.117188 L 279.511719 170.867188 L 48.511719 170.867188 Z M 48.511719 20.117188 " clip-rule="nonzero"/></clipPath><clipPath id="5450a34dc6"><path d="M 702 10 L 758 10 L 758 65 L 702 65 Z M 702 10 " clip-rule="nonzero"/></clipPath><clipPath id="e023de372f"><path d="M 723.402344 1.210938 L 765.585938 31.183594 L 735.613281 73.371094 L 693.425781 43.398438 Z M 723.402344 1.210938 " clip-rule="nonzero"/></clipPath><clipPath id="85b80c35aa"><path d="M 723.402344 1.210938 L 765.585938 31.183594 L 735.613281 73.371094 L 693.425781 43.398438 Z M 723.402344 1.210938 " clip-rule="nonzero"/></clipPath><clipPath id="c43121a1ca"><path d="M 724 30 L 736 30 L 736 42 L 724 42 Z M 724 30 " clip-rule="nonzero"/></clipPath><clipPath id="ac40a8998d"><path d="M 723.402344 1.210938 L 765.585938 31.183594 L 735.613281 73.371094 L 693.425781 43.398438 Z M 723.402344 1.210938 " clip-rule="nonzero"/></clipPath><clipPath id="5ba563c43f"><path d="M 723.402344 1.210938 L 765.585938 31.183594 L 735.613281 73.371094 L 693.425781 43.398438 Z M 723.402344 1.210938 " clip-rule="nonzero"/></clipPath></defs><g clip-path="url(#3a891f7f2d)"><path fill="#0500ff" d="M 258.761719 23.199219 C 263.980469 23.199219 269.199219 23.242188 274.417969 23.199219 C 274.492188 23.195312 274.566406 23.199219 274.636719 23.199219 C 275.609375 23.199219 279.378906 23.121094 279.453125 21.613281 C 279.519531 20.164062 275.230469 20.164062 274.597656 20.164062 C 270.296875 20.164062 265.996094 20.164062 261.695312 20.164062 C 251.375 20.164062 241.050781 20.164062 230.730469 20.164062 C 218.292969 20.164062 205.851562 20.164062 193.414062 20.164062 C 182.664062 20.164062 171.917969 20.164062 161.171875 20.164062 C 155.953125 20.164062 150.730469 20.121094 145.511719 20.164062 C 145.4375 20.167969 145.367188 20.164062 145.292969 20.164062 C 144.109375 20.164062 140.878906 20.222656 140.480469 21.75 C 140.132812 23.066406 139.789062 24.386719 139.441406 25.707031 C 138.503906 29.273438 137.566406 32.839844 136.628906 36.40625 C 135.238281 41.703125 133.84375 47.003906 132.453125 52.300781 C 130.753906 58.769531 129.054688 65.238281 127.355469 71.707031 C 125.5 78.753906 123.648438 85.804688 121.796875 92.851562 C 119.917969 100.003906 118.039062 107.15625 116.160156 114.308594 C 114.40625 120.976562 112.65625 127.644531 110.902344 134.3125 C 109.429688 139.921875 107.953125 145.53125 106.480469 151.136719 C 106.273438 151.933594 106.0625 152.726562 105.855469 153.523438 C 104.382812 149.34375 102.910156 145.167969 101.4375 140.992188 C 98.589844 132.929688 95.746094 124.863281 92.902344 116.804688 C 90.457031 109.863281 88.007812 102.921875 85.558594 95.980469 C 84.371094 92.605469 83.261719 89.195312 81.988281 85.851562 C 81.96875 85.804688 81.953125 85.757812 81.9375 85.707031 C 81.398438 84.179688 78.28125 84.261719 77.082031 84.261719 C 70.167969 84.261719 63.25 84.261719 56.335938 84.261719 C 55.355469 84.261719 54.367188 84.261719 53.386719 84.261719 C 52.417969 84.261719 48.644531 84.339844 48.574219 85.847656 C 48.503906 87.296875 52.792969 87.292969 53.429688 87.292969 C 59.878906 87.292969 66.328125 87.292969 72.78125 87.292969 C 73.582031 89.574219 74.386719 91.851562 75.191406 94.132812 C 77.53125 100.765625 79.871094 107.394531 82.210938 114.03125 C 85.050781 122.09375 87.898438 130.15625 90.742188 138.21875 C 93.191406 145.160156 95.636719 152.101562 98.082031 159.039062 C 99.273438 162.410156 100.382812 165.824219 101.65625 169.167969 C 101.675781 169.214844 101.691406 169.261719 101.707031 169.308594 C 102.246094 170.835938 105.269531 170.792969 106.5625 170.757812 C 107.777344 170.722656 110.960938 170.75 111.375 169.171875 C 111.722656 167.855469 112.070312 166.535156 112.414062 165.21875 C 113.351562 161.652344 114.289062 158.085938 115.226562 154.519531 C 116.621094 149.222656 118.011719 143.921875 119.402344 138.625 C 121.101562 132.15625 122.804688 125.6875 124.503906 119.21875 C 126.355469 112.171875 128.207031 105.121094 130.058594 98.070312 C 131.9375 90.921875 133.816406 83.769531 135.695312 76.617188 C 137.449219 69.949219 139.199219 63.28125 140.953125 56.609375 C 142.425781 51 143.898438 45.394531 145.375 39.785156 C 146.441406 35.730469 147.503906 31.671875 148.570312 27.617188 C 148.957031 26.148438 149.398438 24.675781 149.769531 23.199219 C 152.59375 23.199219 155.414062 23.199219 158.234375 23.199219 C 168.558594 23.199219 178.878906 23.199219 189.203125 23.199219 C 201.640625 23.199219 214.082031 23.199219 226.519531 23.199219 C 237.265625 23.199219 248.011719 23.199219 258.761719 23.199219 " fill-opacity="1" fill-rule="nonzero"/></g><g clip-path="url(#5450a34dc6)"><g clip-path="url(#e023de372f)"><g clip-path="url(#85b80c35aa)"><path fill="#0500ff" d="M 750.601562 52.277344 C 752.339844 49.828125 752.207031 46.347656 750.585938 42.519531 C 753.882812 40.089844 755.957031 37.335938 756.296875 34.59375 C 756.78125 34.445312 757.222656 34.140625 757.539062 33.695312 C 758.304688 32.617188 758.050781 31.117188 756.972656 30.351562 C 756.394531 29.9375 755.695312 29.824219 755.054688 29.96875 C 753.617188 28 751.03125 26.460938 747.6875 25.429688 C 747.964844 21.273438 746.945312 17.9375 744.492188 16.199219 C 742.046875 14.460938 738.574219 14.589844 734.75 16.207031 C 731.652344 12 728.203125 9.988281 724.980469 10.53125 C 723.679688 10.753906 722.480469 11.382812 721.398438 12.394531 C 720.320312 11.636719 718.824219 11.890625 718.058594 12.96875 C 717.292969 14.046875 717.546875 15.546875 718.625 16.3125 C 718.644531 16.324219 718.660156 16.335938 718.679688 16.347656 C 718.28125 17.199219 717.925781 18.121094 717.621094 19.109375 C 713.476562 18.835938 710.152344 19.859375 708.414062 22.304688 C 706.675781 24.75 706.808594 28.226562 708.425781 32.046875 C 704.214844 35.144531 702.203125 38.59375 702.75 41.820312 C 703.070312 43.714844 704.25 45.394531 706.1875 46.769531 C 707.539062 47.730469 709.265625 48.546875 711.324219 49.179688 C 711.054688 53.320312 712.074219 56.648438 714.519531 58.382812 C 716.921875 60.089844 720.339844 60.078125 724.285156 58.402344 C 725.554688 60.121094 726.882812 61.476562 728.230469 62.433594 C 730.164062 63.804688 732.136719 64.371094 734.035156 64.046875 C 737.261719 63.503906 739.855469 60.46875 741.394531 55.472656 C 745.539062 55.742188 748.863281 54.722656 750.601562 52.277344 Z M 756.496094 31.019531 C 757.207031 31.523438 757.375 32.511719 756.871094 33.222656 C 756.367188 33.929688 755.378906 34.097656 754.667969 33.59375 C 753.960938 33.089844 753.792969 32.101562 754.296875 31.390625 C 754.800781 30.683594 755.789062 30.515625 756.496094 31.019531 Z M 754.277344 30.296875 C 754.027344 30.457031 753.808594 30.664062 753.625 30.917969 C 752.859375 31.996094 753.113281 33.496094 754.191406 34.261719 C 754.578125 34.535156 755.015625 34.679688 755.457031 34.699219 C 755.074219 37.140625 753.203125 39.589844 750.257812 41.789062 C 749.164062 39.449219 747.535156 37.003906 745.445312 34.59375 C 746.621094 31.640625 747.351562 28.800781 747.621094 26.238281 C 750.609375 27.179688 752.933594 28.554688 754.277344 30.296875 Z M 726.324219 54.957031 C 726.832031 54.25 727.816406 54.082031 728.527344 54.585938 C 729.238281 55.089844 729.402344 56.078125 728.898438 56.789062 C 728.394531 57.496094 727.40625 57.664062 726.699219 57.160156 C 725.988281 56.65625 725.820312 55.667969 726.324219 54.957031 Z M 729.003906 53.917969 C 727.925781 53.148438 726.421875 53.402344 725.65625 54.484375 C 725.128906 55.226562 725.085938 56.171875 725.460938 56.9375 C 725.160156 57.09375 724.859375 57.242188 724.5625 57.378906 C 724.507812 57.300781 724.453125 57.226562 724.398438 57.148438 C 723.109375 55.261719 721.949219 53.0625 720.949219 50.636719 C 722.753906 50.691406 724.621094 50.640625 726.53125 50.492188 C 728.152344 51.410156 729.769531 52.207031 731.363281 52.882812 C 730.742188 53.410156 730.117188 53.910156 729.488281 54.378906 C 729.351562 54.207031 729.191406 54.050781 729.003906 53.917969 Z M 712.144531 48.5625 C 712.382812 46.15625 713.066406 43.46875 714.164062 40.660156 C 715.328125 41.945312 716.613281 43.214844 718.019531 44.445312 C 718.507812 46.296875 719.074219 48.078125 719.71875 49.765625 C 717.101562 49.617188 714.640625 49.246094 712.433594 48.648438 C 712.335938 48.621094 712.242188 48.589844 712.144531 48.5625 Z M 734.613281 17.433594 C 735.90625 19.324219 737.070312 21.53125 738.074219 23.964844 C 736.277344 23.90625 734.410156 23.949219 732.496094 24.097656 C 730.867188 23.171875 729.238281 22.371094 727.640625 21.695312 C 729.929688 19.734375 732.242188 18.203125 734.4375 17.1875 C 734.496094 17.269531 734.554688 17.347656 734.613281 17.433594 Z M 739.226562 44.195312 C 738.265625 45.550781 737.25 46.832031 736.199219 48.046875 C 734.683594 48.4375 733.113281 48.773438 731.496094 49.046875 C 729.886719 49.320312 728.285156 49.519531 726.710938 49.652344 C 725.335938 48.859375 723.960938 47.976562 722.601562 47.011719 C 721.238281 46.042969 719.957031 45.035156 718.753906 43.996094 C 718.363281 42.46875 718.023438 40.890625 717.75 39.28125 C 717.476562 37.667969 717.277344 36.066406 717.148438 34.496094 C 717.941406 33.121094 718.820312 31.746094 719.789062 30.382812 C 720.753906 29.023438 721.765625 27.738281 722.800781 26.539062 C 724.328125 26.144531 725.90625 25.808594 727.515625 25.535156 C 729.132812 25.261719 730.734375 25.0625 732.304688 24.933594 C 733.679688 25.726562 735.054688 26.605469 736.414062 27.570312 C 737.773438 28.539062 739.058594 29.546875 740.257812 30.582031 C 740.652344 32.113281 740.992188 33.6875 741.261719 35.300781 C 741.535156 36.914062 741.734375 38.511719 741.867188 40.085938 C 741.074219 41.460938 740.195312 42.835938 739.226562 44.195312 Z M 742.074219 35.164062 C 741.863281 33.933594 741.617188 32.726562 741.339844 31.542969 C 742.488281 32.59375 743.550781 33.667969 744.515625 34.75 C 743.960938 36.089844 743.3125 37.453125 742.574219 38.824219 C 742.445312 37.613281 742.28125 36.390625 742.074219 35.164062 Z M 740.992188 30.136719 C 740.507812 28.289062 739.941406 26.511719 739.296875 24.824219 C 742.074219 24.980469 744.636719 25.382812 746.871094 26.011719 C 746.628906 28.421875 745.945312 31.109375 744.847656 33.921875 C 743.6875 32.636719 742.398438 31.367188 740.992188 30.136719 Z M 739.882812 29.195312 C 738.933594 28.410156 737.933594 27.644531 736.890625 26.902344 C 735.847656 26.160156 734.796875 25.472656 733.742188 24.832031 C 735.339844 24.742188 736.898438 24.726562 738.402344 24.78125 C 738.949219 26.1875 739.445312 27.664062 739.882812 29.195312 Z M 731.042969 24.226562 C 729.835938 24.351562 728.613281 24.515625 727.378906 24.722656 C 726.152344 24.933594 724.945312 25.179688 723.761719 25.457031 C 724.8125 24.308594 725.886719 23.246094 726.964844 22.28125 C 728.308594 22.835938 729.671875 23.488281 731.042969 24.226562 Z M 722.355469 25.804688 C 720.5 26.289062 718.722656 26.859375 717.035156 27.503906 C 717.1875 24.742188 717.589844 22.179688 718.230469 19.929688 C 720.640625 20.167969 723.328125 20.851562 726.140625 21.949219 C 724.855469 23.109375 723.585938 24.398438 722.355469 25.804688 Z M 721.414062 26.914062 C 720.628906 27.867188 719.859375 28.863281 719.117188 29.910156 C 718.375 30.953125 717.6875 32.003906 717.046875 33.058594 C 716.957031 31.464844 716.9375 29.90625 716.992188 28.398438 C 718.402344 27.847656 719.878906 27.351562 721.414062 26.914062 Z M 716.308594 34.316406 C 715.382812 35.941406 714.585938 37.5625 713.910156 39.160156 C 711.949219 36.867188 710.421875 34.554688 709.402344 32.359375 C 709.488281 32.300781 709.566406 32.242188 709.648438 32.183594 C 711.535156 30.894531 713.738281 29.734375 716.164062 28.730469 C 716.113281 30.53125 716.15625 32.402344 716.308594 34.316406 Z M 716.441406 35.757812 C 716.570312 36.964844 716.734375 38.1875 716.941406 39.417969 C 717.148438 40.644531 717.394531 41.851562 717.671875 43.035156 C 716.523438 41.984375 715.464844 40.914062 714.496094 39.832031 C 715.054688 38.492188 715.703125 37.128906 716.441406 35.757812 Z M 719.128906 45.382812 C 720.082031 46.171875 721.082031 46.9375 722.125 47.679688 C 723.167969 48.421875 724.222656 49.113281 725.277344 49.753906 C 723.683594 49.84375 722.125 49.859375 720.613281 49.804688 C 720.066406 48.394531 719.566406 46.917969 719.128906 45.382812 Z M 727.976562 50.355469 C 729.183594 50.230469 730.40625 50.066406 731.632812 49.855469 C 732.863281 49.648438 734.066406 49.402344 735.238281 49.128906 C 734.199219 50.261719 733.132812 51.324219 732.039062 52.296875 C 730.703125 51.742188 729.34375 51.09375 727.976562 50.355469 Z M 736.65625 48.773438 C 738.523438 48.285156 740.304688 47.710938 741.980469 47.070312 C 741.832031 49.691406 741.460938 52.152344 740.863281 54.363281 C 740.835938 54.460938 740.808594 54.554688 740.78125 54.652344 C 738.375 54.414062 735.691406 53.730469 732.882812 52.636719 C 734.179688 51.457031 735.441406 50.167969 736.65625 48.773438 Z M 737.601562 47.667969 C 738.390625 46.707031 739.160156 45.710938 739.894531 44.671875 C 740.636719 43.628906 741.328125 42.574219 741.96875 41.519531 C 742.0625 43.113281 742.078125 44.675781 742.023438 46.1875 C 740.621094 46.734375 739.144531 47.230469 737.601562 47.667969 Z M 742.707031 40.265625 C 743.628906 38.640625 744.425781 37.019531 745.101562 35.421875 C 747.070312 37.722656 748.605469 40.042969 749.625 42.246094 C 747.726562 43.570312 745.4375 44.796875 742.855469 45.859375 C 742.90625 44.050781 742.859375 42.179688 742.707031 40.265625 Z M 744.019531 16.867188 C 746.222656 18.433594 747.15625 21.4375 746.933594 25.207031 C 744.578125 24.558594 741.886719 24.144531 738.976562 24 C 737.921875 21.375 736.679688 18.996094 735.292969 16.96875 C 735.265625 16.925781 735.234375 16.890625 735.207031 16.847656 C 738.6875 15.40625 741.816406 15.304688 744.019531 16.867188 Z M 718.730469 13.441406 C 719.234375 12.734375 720.222656 12.566406 720.929688 13.070312 C 721.640625 13.574219 721.808594 14.5625 721.304688 15.273438 C 720.800781 15.980469 719.8125 16.148438 719.101562 15.644531 C 718.394531 15.140625 718.226562 14.152344 718.730469 13.441406 Z M 719.425781 16.679688 C 720.359375 16.917969 721.382812 16.578125 721.972656 15.746094 C 722.578125 14.898438 722.542969 13.785156 721.976562 12.976562 C 722.933594 12.085938 723.988281 11.535156 725.117188 11.34375 C 727.984375 10.855469 731.109375 12.703125 733.984375 16.550781 C 731.652344 17.644531 729.210938 19.269531 726.808594 21.351562 C 723.859375 20.179688 721.019531 19.445312 718.460938 19.179688 C 718.742188 18.289062 719.066406 17.457031 719.425781 16.679688 Z M 709.082031 22.78125 C 710.648438 20.578125 713.640625 19.644531 717.398438 19.863281 C 716.742188 22.238281 716.332031 24.929688 716.191406 27.828125 C 713.578125 28.886719 711.207031 30.121094 709.183594 31.503906 C 709.144531 31.535156 709.105469 31.5625 709.066406 31.589844 C 707.625 28.113281 707.519531 24.980469 709.082031 22.78125 Z M 703.558594 41.683594 C 703.074219 38.8125 704.917969 35.691406 708.769531 32.816406 C 709.863281 35.148438 711.488281 37.585938 713.570312 39.988281 C 712.394531 42.941406 711.660156 45.777344 711.394531 48.339844 C 706.816406 46.894531 704.046875 44.550781 703.558594 41.683594 Z M 714.996094 57.714844 C 712.796875 56.148438 711.863281 53.160156 712.078125 49.398438 C 712.128906 49.414062 712.171875 49.425781 712.21875 49.441406 C 714.585938 50.082031 717.226562 50.46875 720.046875 50.605469 C 721.101562 53.222656 722.339844 55.589844 723.722656 57.613281 C 723.746094 57.648438 723.769531 57.679688 723.796875 57.714844 C 720.199219 59.207031 717.121094 59.222656 714.996094 57.714844 Z M 733.898438 63.238281 C 731.035156 63.722656 727.921875 61.886719 725.050781 58.054688 C 725.351562 57.914062 725.652344 57.765625 725.957031 57.605469 C 726.039062 57.683594 726.125 57.761719 726.222656 57.828125 C 727.300781 58.597656 728.804688 58.34375 729.570312 57.261719 C 730.03125 56.613281 730.121094 55.8125 729.886719 55.113281 C 730.671875 54.53125 731.449219 53.90625 732.21875 53.234375 C 735.167969 54.40625 738 55.136719 740.558594 55.402344 C 739.109375 59.984375 736.769531 62.753906 733.898438 63.238281 Z M 741.617188 54.71875 C 741.628906 54.671875 741.644531 54.625 741.65625 54.578125 C 742.296875 52.210938 742.6875 49.558594 742.824219 46.734375 C 745.53125 45.640625 747.9375 44.367188 749.941406 42.976562 C 751.390625 46.460938 751.496094 49.597656 749.929688 51.800781 C 748.367188 54.003906 745.375 54.933594 741.617188 54.71875 Z M 741.617188 54.71875 " fill-opacity="1" fill-rule="nonzero"/></g></g></g><g clip-path="url(#c43121a1ca)"><g clip-path="url(#ac40a8998d)"><g clip-path="url(#5ba563c43f)"><path fill="#0500ff" d="M 733.433594 31.765625 C 730.921875 29.984375 727.429688 30.574219 725.648438 33.082031 C 723.863281 35.59375 724.453125 39.085938 726.964844 40.867188 C 729.472656 42.652344 732.964844 42.0625 734.75 39.550781 C 736.53125 37.042969 735.941406 33.550781 733.433594 31.765625 Z M 727.441406 40.199219 C 725.300781 38.679688 724.796875 35.699219 726.316406 33.558594 C 727.835938 31.417969 730.816406 30.914062 732.957031 32.4375 C 735.097656 33.957031 735.601562 36.933594 734.082031 39.074219 C 732.558594 41.214844 729.582031 41.71875 727.441406 40.199219 Z M 727.441406 40.199219 " fill-opacity="1" fill-rule="nonzero"/></g></g></g><g fill="#000000" fill-opacity="1"><g transform="translate(153.166789, 167.149164)"><g><path d="M 16.132812 -11.269531 C 18.632812 -11.796875 20.636719 -13.242188 20.636719 -16.460938 C 20.636719 -19.421875 18.761719 -21.851562 14.097656 -21.851562 L 1.90625 -21.851562 L 1.90625 0 L 13.867188 0 C 18.53125 0 20.933594 -2.265625 20.933594 -5.949219 C 20.933594 -9.429688 18.863281 -10.84375 16.132812 -11.269531 Z M 12.617188 -18.074219 C 14.6875 -18.074219 15.410156 -17.152344 15.410156 -15.476562 C 15.410156 -13.898438 14.621094 -12.847656 12.453125 -12.847656 L 6.902344 -12.847656 L 6.902344 -18.074219 Z M 12.75 -3.8125 L 6.902344 -3.8125 L 6.902344 -9.496094 L 12.453125 -9.496094 C 14.851562 -9.496094 15.738281 -8.378906 15.738281 -6.636719 C 15.738281 -5.027344 14.984375 -3.8125 12.75 -3.8125 Z M 12.75 -3.8125 "/></g></g></g><g fill="#000000" fill-opacity="1"><g transform="translate(189.115372, 167.149164)"><g><path d="M 16.660156 -21.851562 L 13.046875 -14.261719 C 12.488281 -13.046875 11.960938 -11.863281 11.433594 -10.648438 C 10.976562 -11.863281 10.449219 -13.046875 9.921875 -14.261719 L 6.34375 -21.851562 L 0.753906 -21.851562 L 9.003906 -6.605469 L 9.003906 0 L 14 0 L 14 -6.605469 L 22.214844 -21.851562 Z M 16.660156 -21.851562 "/></g></g></g><g fill="#000000" fill-opacity="1"><g transform="translate(225.753989, 167.149164)"><g/></g></g><g fill="#000000" fill-opacity="1"><g transform="translate(247.770497, 167.149164)"><g><path d="M 1.28125 -7.195312 C 1.445312 -3.21875 3.910156 0.558594 11.105469 0.558594 C 17.941406 0.558594 20.601562 -2.234375 20.601562 -6.539062 C 20.601562 -10.351562 18.367188 -12.453125 13.933594 -12.945312 L 9.363281 -13.503906 C 7.558594 -13.703125 6.800781 -14.65625 6.800781 -15.9375 C 6.800781 -17.644531 8.214844 -18.730469 10.875 -18.730469 C 13.769531 -18.730469 15.214844 -17.414062 15.476562 -15.378906 L 20.375 -15.378906 C 20.109375 -19.257812 17.414062 -22.410156 10.875 -22.410156 C 4.730469 -22.410156 1.773438 -19.585938 1.773438 -15.640625 C 1.773438 -12.027344 3.941406 -9.890625 7.820312 -9.429688 L 12.652344 -8.804688 C 14.589844 -8.542969 15.574219 -7.6875 15.574219 -6.046875 C 15.574219 -4.304688 14.492188 -3.15625 11.171875 -3.15625 C 7.722656 -3.15625 6.277344 -4.863281 6.144531 -7.195312 Z M 1.28125 -7.195312 "/></g></g></g><g fill="#000000" fill-opacity="1"><g transform="translate(283.423337, 167.149164)"><g><path d="M 13.011719 0.558594 C 21.390625 0.558594 24.511719 -4.894531 24.511719 -10.910156 C 24.511719 -16.824219 21.390625 -22.410156 13.011719 -22.410156 C 4.632812 -22.410156 1.480469 -16.855469 1.480469 -10.910156 C 1.480469 -4.863281 4.632812 0.558594 13.011719 0.558594 Z M 6.703125 -10.910156 C 6.703125 -15.738281 8.214844 -18.335938 13.011719 -18.335938 C 17.808594 -18.335938 19.320312 -15.738281 19.320312 -10.910156 C 19.320312 -6.144531 17.808594 -3.550781 13.011719 -3.550781 C 8.214844 -3.550781 6.703125 -6.144531 6.703125 -10.910156 Z M 6.703125 -10.910156 "/></g></g></g><g fill="#000000" fill-opacity="1"><g transform="translate(323.117806, 167.149164)"><g><path d="M 1.808594 -8.183594 C 1.808594 -2.464844 5.09375 0.527344 11.632812 0.527344 C 18.171875 0.527344 21.425781 -2.496094 21.425781 -8.183594 L 21.425781 -21.851562 L 16.460938 -21.851562 L 16.460938 -8.871094 C 16.460938 -4.632812 14.851562 -3.550781 11.632812 -3.550781 C 8.414062 -3.550781 6.800781 -4.632812 6.800781 -8.871094 L 6.800781 -21.851562 L 1.808594 -21.851562 Z M 1.808594 -8.183594 "/></g></g></g><g fill="#000000" fill-opacity="1"><g transform="translate(360.052146, 167.149164)"><g><path d="M 16.890625 -21.851562 L 16.890625 -13.109375 L 6.867188 -13.109375 L 6.867188 -21.851562 L 1.90625 -21.851562 L 1.90625 0 L 6.867188 0 L 6.867188 -9.199219 L 16.890625 -9.199219 L 16.890625 0 L 21.882812 0 L 21.882812 -21.851562 Z M 16.890625 -21.851562 "/></g></g></g><g fill="#000000" fill-opacity="1"><g transform="translate(397.512231, 167.149164)"><g><path d="M 18.960938 0 L 23.988281 0 L 16.296875 -21.851562 L 8.675781 -21.851562 L 0.984375 0 L 6.011719 0 L 7.589844 -4.46875 L 17.382812 -4.46875 Z M 8.9375 -8.3125 L 12.488281 -18.402344 L 16.035156 -8.3125 Z M 8.9375 -8.3125 "/></g></g></g><g fill="#000000" fill-opacity="1"><g transform="translate(436.155238, 167.149164)"><g><path d="M 14.984375 -17.910156 L 14.984375 -21.851562 L 1.90625 -21.851562 L 1.90625 -17.910156 L 5.949219 -17.910156 L 5.949219 -3.976562 L 1.90625 -3.976562 L 1.90625 0 L 14.984375 0 L 14.984375 -3.976562 L 10.941406 -3.976562 L 10.941406 -17.910156 Z M 14.984375 -17.910156 "/></g></g></g><g fill="#000000" fill-opacity="1"><g transform="translate(466.747857, 167.149164)"><g><path d="M 6.933594 -3.976562 L 6.933594 -21.851562 L 1.90625 -21.851562 L 1.90625 0 L 17.152344 0 L 17.152344 -3.976562 Z M 6.933594 -3.976562 "/></g></g></g><g fill="#000000" fill-opacity="1"><g transform="translate(498.227653, 167.149164)"><g/></g></g><g fill="#000000" fill-opacity="1"><g transform="translate(520.244169, 167.149164)"><g><path d="M 18.960938 0 L 23.988281 0 L 16.296875 -21.851562 L 8.675781 -21.851562 L 0.984375 0 L 6.011719 0 L 7.589844 -4.46875 L 17.382812 -4.46875 Z M 8.9375 -8.3125 L 12.488281 -18.402344 L 16.035156 -8.3125 Z M 8.9375 -8.3125 "/></g></g></g><g fill="#000000" fill-opacity="1"><g transform="translate(558.887175, 167.149164)"><g><path d="M 11.894531 0.558594 C 16.527344 0.558594 18.796875 -1.609375 19.683594 -4.207031 L 19.683594 0 L 23.953125 0 L 23.953125 -11.632812 L 11.402344 -11.632812 L 11.402344 -8.378906 L 19.191406 -8.378906 C 18.796875 -5.652344 17.316406 -3.382812 12.980469 -3.382812 C 8.578125 -3.382812 6.703125 -5.980469 6.703125 -10.910156 C 6.703125 -16.101562 8.839844 -18.5 13.210938 -18.5 C 16.855469 -18.5 18.632812 -16.957031 18.925781 -14.457031 L 23.988281 -14.457031 C 23.59375 -19.089844 20.539062 -22.410156 13.242188 -22.410156 C 4.996094 -22.410156 1.480469 -17.316406 1.480469 -10.941406 C 1.480469 -4.601562 4.699219 0.558594 11.894531 0.558594 Z M 11.894531 0.558594 "/></g></g></g><g fill="#000000" fill-opacity="1"><g transform="translate(598.581645, 167.149164)"><g><path d="M 13.011719 0.558594 C 21.390625 0.558594 24.511719 -4.894531 24.511719 -10.910156 C 24.511719 -16.824219 21.390625 -22.410156 13.011719 -22.410156 C 4.632812 -22.410156 1.480469 -16.855469 1.480469 -10.910156 C 1.480469 -4.863281 4.632812 0.558594 13.011719 0.558594 Z M 6.703125 -10.910156 C 6.703125 -15.738281 8.214844 -18.335938 13.011719 -18.335938 C 17.808594 -18.335938 19.320312 -15.738281 19.320312 -10.910156 C 19.320312 -6.144531 17.808594 -3.550781 13.011719 -3.550781 C 8.214844 -3.550781 6.703125 -6.144531 6.703125 -10.910156 Z M 6.703125 -10.910156 "/></g></g></g><g fill="#000000" fill-opacity="1"><g transform="translate(638.276114, 167.149164)"><g><path d="M 1.808594 -8.183594 C 1.808594 -2.464844 5.09375 0.527344 11.632812 0.527344 C 18.171875 0.527344 21.425781 -2.496094 21.425781 -8.183594 L 21.425781 -21.851562 L 16.460938 -21.851562 L 16.460938 -8.871094 C 16.460938 -4.632812 14.851562 -3.550781 11.632812 -3.550781 C 8.414062 -3.550781 6.800781 -4.632812 6.800781 -8.871094 L 6.800781 -21.851562 L 1.808594 -21.851562 Z M 1.808594 -8.183594 "/></g></g></g><g fill="#000000" fill-opacity="1"><g transform="translate(675.210426, 167.149164)"><g><path d="M 20.078125 -5.324219 C 20.078125 -8.476562 18.335938 -9.59375 16.101562 -10.152344 C 18.695312 -10.710938 20.667969 -12.78125 20.667969 -15.871094 C 20.667969 -19.421875 18.269531 -21.851562 13.441406 -21.851562 L 1.90625 -21.851562 L 1.90625 0 L 6.933594 0 L 6.933594 -8.445312 L 11.433594 -8.445312 C 13.605469 -8.445312 15.082031 -7.394531 15.082031 -4.929688 L 15.082031 -3.777344 C 15.082031 -1.972656 15.246094 -0.789062 15.511719 0 L 20.503906 0 C 20.273438 -1.050781 20.078125 -2.039062 20.078125 -3.84375 Z M 12.324219 -12.027344 L 6.933594 -12.027344 L 6.933594 -17.972656 L 12.324219 -17.972656 C 14.492188 -17.972656 15.445312 -16.988281 15.445312 -15.148438 C 15.445312 -13.109375 14.589844 -12.027344 12.324219 -12.027344 Z M 12.324219 -12.027344 "/></g></g></g><g fill="#000000" fill-opacity="1"><g transform="translate(711.093303, 167.149164)"><g><path d="M 14.984375 -17.910156 L 14.984375 -21.851562 L 1.90625 -21.851562 L 1.90625 -17.910156 L 5.949219 -17.910156 L 5.949219 -3.976562 L 1.90625 -3.976562 L 1.90625 0 L 14.984375 0 L 14.984375 -3.976562 L 10.941406 -3.976562 L 10.941406 -17.910156 Z M 14.984375 -17.910156 "/></g></g></g><g fill="#000000" fill-opacity="1"><g transform="translate(142.020368, 122.474222)"><g><path d="M 44.914062 1.824219 C 73.53125 1.824219 83.902344 -7.183594 85.839844 -31.804688 L 62.128906 -31.804688 C 61.332031 -21.546875 57.457031 -16.757812 44.800781 -16.757812 C 32.488281 -16.757812 27.816406 -23.824219 27.816406 -37.734375 C 27.816406 -51.984375 33.058594 -59.050781 45.484375 -59.050781 C 57.796875 -59.050781 61.21875 -53.695312 61.902344 -44.347656 L 85.386719 -44.347656 C 83.789062 -67.03125 72.960938 -77.632812 44.914062 -77.632812 C 14.707031 -77.632812 3.988281 -57.457031 3.988281 -37.734375 C 3.988281 -17.554688 14.707031 1.824219 44.914062 1.824219 Z M 44.914062 1.824219 "/></g></g></g><g fill="#000000" fill-opacity="1"><g transform="translate(231.247505, 122.474222)"><g><path d="M 28.84375 -18.011719 L 28.84375 -75.808594 L 5.699219 -75.808594 L 5.699219 0 L 61.445312 0 L 61.445312 -18.011719 Z M 28.84375 -18.011719 "/></g></g></g><g fill="#000000" fill-opacity="1"><g transform="translate(296.088204, 122.474222)"><g><path d="M 65.550781 0 L 88.464844 0 L 63.269531 -75.808594 L 28.042969 -75.808594 L 2.851562 0 L 25.765625 0 L 30.097656 -12.996094 L 61.21875 -12.996094 Z M 35.796875 -30.097656 L 45.601562 -59.734375 L 55.519531 -30.097656 Z M 35.796875 -30.097656 "/></g></g></g><g fill="#000000" fill-opacity="1"><g transform="translate(387.36655, 122.474222)"><g><path d="M 3.421875 -24.394531 C 4.558594 -11.058594 13.222656 1.9375 38.304688 1.9375 C 63.953125 1.9375 73.300781 -8.550781 73.300781 -23.484375 C 73.300781 -37.503906 65.890625 -45.941406 48.222656 -47.421875 L 35.113281 -48.5625 C 29.640625 -49.019531 27.589844 -51.527344 27.589844 -54.832031 C 27.589844 -58.9375 31.917969 -61.21875 38.191406 -61.21875 C 45.257812 -61.21875 49.363281 -58.027344 50.046875 -53.011719 L 72.617188 -53.011719 C 71.707031 -66.347656 62.128906 -77.632812 38.074219 -77.632812 C 15.730469 -77.632812 4.558594 -67.828125 4.558594 -53.125 C 4.558594 -39.898438 12.769531 -31.804688 26.789062 -30.324219 L 42.863281 -28.613281 C 47.652344 -28.042969 50.273438 -25.992188 50.273438 -21.660156 C 50.273438 -17.214844 46.511719 -14.476562 38.761719 -14.476562 C 29.640625 -14.476562 26.332031 -19.835938 25.648438 -24.394531 Z M 3.421875 -24.394531 "/></g></g></g><g fill="#000000" fill-opacity="1"><g transform="translate(464.286525, 122.474222)"><g><path d="M 3.421875 -24.394531 C 4.558594 -11.058594 13.222656 1.9375 38.304688 1.9375 C 63.953125 1.9375 73.300781 -8.550781 73.300781 -23.484375 C 73.300781 -37.503906 65.890625 -45.941406 48.222656 -47.421875 L 35.113281 -48.5625 C 29.640625 -49.019531 27.589844 -51.527344 27.589844 -54.832031 C 27.589844 -58.9375 31.917969 -61.21875 38.191406 -61.21875 C 45.257812 -61.21875 49.363281 -58.027344 50.046875 -53.011719 L 72.617188 -53.011719 C 71.707031 -66.347656 62.128906 -77.632812 38.074219 -77.632812 C 15.730469 -77.632812 4.558594 -67.828125 4.558594 -53.125 C 4.558594 -39.898438 12.769531 -31.804688 26.789062 -30.324219 L 42.863281 -28.613281 C 47.652344 -28.042969 50.273438 -25.992188 50.273438 -21.660156 C 50.273438 -17.214844 46.511719 -14.476562 38.761719 -14.476562 C 29.640625 -14.476562 26.332031 -19.835938 25.648438 -24.394531 Z M 3.421875 -24.394531 "/></g></g></g><g fill="#000000" fill-opacity="1"><g transform="translate(553.778303, 123.404261)"><g><path d="M 66.6875 -71.484375 L 66.6875 0 L 56.890625 0 L 17.328125 -55.625 L 17.328125 0 L 8.203125 0 L 8.203125 -71.484375 L 18.015625 -71.484375 L 57.5625 -15.046875 L 57.5625 -71.484375 Z M 66.6875 -71.484375 "/></g></g></g><g fill="#000000" fill-opacity="1"><g transform="translate(628.647068, 123.404261)"><g><path d="M 49.8125 -10.9375 L 49.8125 -3.078125 C 47.84375 -2.015625 44.9375 -1.082031 41.09375 -0.28125 C 37.257812 0.507812 33.363281 0.90625 29.40625 0.90625 C 20.59375 0.90625 14.285156 -1.367188 10.484375 -5.921875 C 6.679688 -10.484375 4.78125 -18.007812 4.78125 -28.5 C 4.78125 -38.601562 6.753906 -45.953125 10.703125 -50.546875 C 14.660156 -55.148438 20.972656 -57.453125 29.640625 -57.453125 C 37.691406 -57.453125 43.46875 -55.644531 46.96875 -52.03125 C 50.46875 -48.425781 52.21875 -42.40625 52.21875 -33.96875 C 52.21875 -32.445312 52.175781 -31.039062 52.09375 -29.75 C 52.019531 -28.457031 51.867188 -26.898438 51.640625 -25.078125 L 14.25 -25.078125 C 14.320312 -18.847656 15.59375 -14.398438 18.0625 -11.734375 C 20.539062 -9.078125 24.816406 -7.75 30.890625 -7.75 C 34.160156 -7.75 37.582031 -8.050781 41.15625 -8.65625 C 44.726562 -9.269531 47.613281 -10.03125 49.8125 -10.9375 Z M 43.65625 -35.21875 C 43.582031 -40.238281 42.476562 -43.789062 40.34375 -45.875 C 38.21875 -47.96875 34.648438 -49.015625 29.640625 -49.015625 C 24.015625 -49.015625 20.039062 -47.816406 17.71875 -45.421875 C 15.40625 -43.035156 14.25 -38.835938 14.25 -32.828125 L 43.546875 -32.828125 C 43.546875 -32.984375 43.5625 -33.34375 43.59375 -33.90625 C 43.632812 -34.476562 43.65625 -34.914062 43.65625 -35.21875 Z M 43.65625 -35.21875 "/></g></g></g><g fill="#000000" fill-opacity="1"><g transform="translate(685.396896, 123.404261)"><g><path d="M 40.578125 -8.78125 L 40.578125 -0.90625 C 39.367188 -0.375 37.71875 0.0546875 35.625 0.390625 C 33.53125 0.734375 31.535156 0.90625 29.640625 0.90625 C 22.796875 0.90625 17.910156 -0.609375 14.984375 -3.640625 C 12.066406 -6.679688 10.609375 -11.925781 10.609375 -19.375 L 10.609375 -48.34375 L 2.171875 -48.34375 L 2.171875 -56.3125 L 10.71875 -56.3125 L 12.203125 -70 L 19.953125 -70 L 19.953125 -56.3125 L 40.015625 -56.3125 L 40.015625 -48.34375 L 19.953125 -48.34375 L 19.953125 -19.71875 C 19.953125 -15.082031 20.804688 -11.925781 22.515625 -10.25 C 24.222656 -8.582031 27.242188 -7.75 31.578125 -7.75 C 32.941406 -7.75 34.515625 -7.863281 36.296875 -8.09375 C 38.085938 -8.320312 39.515625 -8.550781 40.578125 -8.78125 Z M 40.578125 -8.78125 "/></g></g></g></svg>